# xmcd
#
# Track frame offsets:
#	150
#	23063
#	43140
#	65007
#	78613
#	95724
#	114171
#	128086
#	148186
#	162656
#	180232
#	204768
#	216831
#	232486
#	248025
#
# Disc length: 3559 seconds
#
# Revision: 0
# Processed by: cddbd v1.5.2PL0 Copyright (c) Steve Scherf et al.
# Submitted via: FairStars CD Ripper 1.52
#
DISCID=d90de50f
DTITLE=John Leeland - Open Highway
DYEAR=2011
DGENRE=Country
TTITLE0=Open Highway
TTITLE1=Shut It Down Tonight
TTITLE2=Restless Cowboy (Where Nobdy Knows My Name)
TTITLE3=Take Love When You Can Get It
TTITLE4=Before You
TTITLE5=A Little Piece of Mind
TTITLE6=Addicted to You
TTITLE7=On My Mind
TTITLE8=Hood Hoppin' Mama
TTITLE9=In Your Eyes
TTITLE10=Don't Waste Your Time
TTITLE11=Lonesome Fool
TTITLE12=Standing in the Dark
TTITLE13=Need for Speed
TTITLE14=My Little Sun
EXTD=
EXTT0=
EXTT1=
EXTT2=
EXTT3=
EXTT4=
EXTT5=
EXTT6=
EXTT7=
EXTT8=
EXTT9=
EXTT10=
EXTT11=
EXTT12=
EXTT13=
EXTT14=
PLAYORDER=
